<svg
	id="svg11028"
	xmlns="http://www.w3.org/2000/svg" xml:space="preserve" height="250" viewBox="0 0 500 250" width="500" version="1.1">
	<g id="g11036" transform="matrix(1.25,0,0,-1.25,0,250)">
		<g id="g18206">
			<rect id="rect18058" style="color-rendering:auto;color:#000000;isolation:auto;mix-blend-mode:normal;shape-rendering:auto;solid-color:#000000;image-rendering:auto" transform="scale(1,-1)" ry=".48702" height="9.3621" width="23.894" stroke="#000" stroke-linecap="round" stroke-miterlimit="3.7" y="-174.09" x="271.04" stroke-width="0.8" fill="none"/>
		</g>
		<text id="text18060" style="word-spacing:0px;letter-spacing:0px" xml:space="preserve" transform="scale(1,-1)" line-height="125%" font-size="3.7629px" y="-168.17754" x="276.4967" font-family="&apos;Open Sans&apos;" fill="#000000">
			<tspan id="tspan18062" font-weight="bold" y="-168.17754" x="276.4967" font-family="&apos;Open Sans&apos;">Gruyère</tspan>
		</text>
		<g fill="none">
			<g stroke-width="1.2">
				<path stroke="#000" id="s864" d="m246.61 161.56 74.973 0.81227"/>
				<path stroke="#000" id="s843" d="m230.77 161.48 16.002 0.16246"/>
				<path stroke="#000" id="s844" d="m230.93 159.29c6.9976-2.0527 14.772-3.1986 23.069-3.7365l-14.702-0.16245"/>
				<path stroke="#000" id="s862" d="m270 155.63-16.083-0.0812"/>
				<path stroke="#000" id="s863" d="m321.58 157.34-11.534-1.2996-39.801-0.40614"/>
				<path stroke="#000" id="s870" d="m321.5 162.37 15.19 0.24368"/>
				<path stroke="#000" id="s867" d="m337.01 158.47-15.352-1.2184"/>
				<path stroke="#000" id="s871" d="m366.88 154.86c-13.633 6.8373-22.285 7.6756-30.229 7.8135 14.83-1.6841 22.088-5.4715 28.567-9.4752"/>
				<path stroke="#000" id="s876" d="m336.9 158.46c28.859-2.1238 39.279-14.45 48.508-27.436-4.8104 7.6588-9.2503 15.367-20.188 22.203"/>
				<path stroke="#000" id="s877" d="m391.1 117.31c-1.1273 4.6198-3.3667 9.2395-5.7983 13.859"/>
				<path stroke="#000" id="s943" d="m329.02 7.2832c22.552 0.072753 39.338 9.1754 51.902 24.89 6.7793 9.1295 11.153 20.974 12.092 36.699l-0.14142 37.194c-0.20024 3.8143-0.6305 7.617-1.7678 11.384"/>
				<path stroke="#000" id="s940" d="m313.04 7.1771 16.051 0.07072"/>
				<path stroke="#000" id="s966" d="m281.43 6.6822 31.572 0.45962"/>
				<path stroke="#000" id="s967" d="m281.57 12.869 31.855 0.38891"/>
				<path stroke="#000" id="s941" d="m313.43 13.223c5.2552 0.15869 10.526 0.62739 15.875 2.6516"/>
				<path stroke="#000" id="s944" d="m329.33 15.875c9.28 3.343 18.43 7.385 26.77 16.125 8.1228 8.311 12.489 17.561 15.3 27.2l15.7 58.7"/>
				<path stroke="#000" id="s945" d="m328.3 19.8c9.4003 2.7979 17.618 7.9102 24.85 14.95 7.3502 7.5706 11.808 16.24 14.45 25.6l15.228 57.03 1.4849 8.2024"/>
				<path stroke="#000" id="s942" d="m328.42 19.834c-5.2336-1.8951-9.9984-2.1491-14.672-2.086"/>
				<path stroke="#000" id="s976" d="m298.26 17.395 15.486 0.3182c-5.2805 0.40598-10.675 0.45422-15.415 1.8385"/>
				<path stroke="#000" id="s970" d="m281.92 17.147 16.352 0.21516c-5.7251 0.01176-11.298-0.7869-16.74-2.2834"/>
				<path stroke="#000" id="s964" d="m281.57 15.044c-6.3197-2.2654-10.768-2.0959-15.309-2.192h15.291c-4.5771-0.09431-7.8457 0.6728-15.238-1.9799"/>
				<path stroke="#000" id="s961" d="m266.47 10.896-8.7339-2.1045m0.31856 2.0131 8.2303-2.1778"/>
				<path stroke="#000" id="s995" d="m265.63 6.5338-22.01-0.2088c4.1548 0.24852 9.4608 1.2027 14.15 2.4688"/>
				<path stroke="#000" id="s963" d="m265.63 6.5335 15.81 0.1477c-5.1962 0.16649-10.398 0.47838-15.2 1.9591"/>
				<path stroke="#000" id="s986" d="m227.02 6.1165 16.62 0.2116"/>
				<path stroke="#000" id="s987" d="m227.19 12.48 15.309 0.21214"/>
				<path stroke="#000" id="s994" d="m242.48 12.675c4.9032 0.14102 9.925-0.03682 15.574-1.9004l-15.486 3.8449c3.7574-1.4394 12.324-1.8992 23.706-1.7854"/>
				<path stroke="#000" id="s960" d="m265.98 16.95 15.966 0.19292"/>
				<path stroke="#000" id="s991" d="m266.08 16.935-25.527-0.17678c-6.2209-0.29229-9.6414 1.0077-13.576 2.0153l15.521-4.1366c-4.2733 0.9088-6.5882 2.5777-14.743 1.9799"/>
				<path stroke="#000" id="s972" d="m283.16 23.511 15.213-3.9805"/>
				<path stroke="#000" id="s997" d="m283.27 23.499-47.85-0.424"/>
				<path stroke="#000" id="s957" d="m338.65 46.95 15.1 4.35"/>
				<path stroke="#000" id="s947" d="m323.35 46.75 14.9 4.35"/>
				<path stroke="#000" id="s946" d="m306.35 46.4 14.75 4.2"/>
				<path stroke="#000" id="s956" d="m323.75 34.3 14.6 4.35"/>
				<path stroke="#000" id="s975" d="m278.65 29.9 60.043 17.063"/>
				<path stroke="#000" id="s971" d="m278.53 27.789h14.142c5.8656 0.33332 11.643 0.95948 17.112 2.6163l13.983 3.8979"/>
				<path stroke="#000" id="s965" d="m278.69 29.919c-2.574-0.94242-12.896-2.2216-15.86-2.2004l15.708 0.06661"/>
				<path stroke="#000" id="s974" d="m262.8 29.851 60.637 16.835"/>
				<path stroke="#000" id="s973" d="m247.1 29.7 59.284 16.709"/>
				<path stroke="#000" id="s977" d="m291.82 46.3 13.275 4"/>
				<path stroke="#000" id="s993" d="m231.42 29.425 60.442 16.89"/>
				<path stroke="#000" id="s996" d="m247.13 29.706c-5.14-1.728-10.33-2.267-15.41-2.406l15.125 0.2"/>
				<path stroke="#000" id="s962" d="m262.85 29.872c-6.2471-2.1017-12.202-2.3508-16.025-2.35l16.019 0.2"/>
				<path stroke="#000" id="s1015" d="m117.7 5 109.32 1.1144"/>
				<path stroke="#000" id="s1011" d="m104.98 4.875 12.73 0.125"/>
				<path stroke="#000" id="s1007" d="m89.675 4.725 15.309 0.14419c-3.6-0.0407-10.273 0.6967-15.705 2.0808"/>
				<path stroke="#000" id="s1016" d="m118.09 11.368 109.13 1.1129"/>
				<path stroke="#000" id="s1017" d="m117.87 15.733 94.01 0.91924"/>
				<path stroke="#000" id="s985" d="m211.85 16.661 15.972-0.03536"/>
				<path stroke="#000" id="s983" d="m226.98 18.738c-7.6044 2.4555-14.72 3.9596-21.125 4.0835m9.7758 2.2097c-4.4713-1.6826-9.2025-1.7197-13.859-2.2274 0 0 2.7723 0.01076 4.1585 0.01629 4.471 0.01783 13.413 0.05443 13.413 0.05443"/>
				<path stroke="#000" id="s990" d="m216.11 27.191 15.61 0.109m-16.141-2.2844 15.892 4.4269"/>
				<path stroke="#000" id="s984" d="m200.15 27.1 15.95 0.1"/>
				<path stroke="#000" id="s982" d="m184.4 22.75 17.4 0.05"/>
				<path stroke="#000" id="s981" d="m106 21.991 78.409 0.74246"/>
				<path stroke="#000" id="s980" d="m106.15 26 94.019 1.0938"/>
			</g>
			<rect id="rect18322" ry=".38961" style="color-rendering:auto;color:#000000;isolation:auto;mix-blend-mode:normal;shape-rendering:auto;solid-color:#000000;image-rendering:auto" transform="scale(1,-1)" height="14.65" width="25.15" stroke-linecap="round" stroke-miterlimit="3.7" y="-49.6" x="138.35" stroke-width="0.8"/>
		</g>
		<text id="text18328" style="word-spacing:0px;letter-spacing:0px" xml:space="preserve" transform="scale(1,-1)" line-height="125%" font-size="2.6343px" y="-42.068806" x="140.9753" font-family="&apos;Open Sans&apos;" fill="#000000">
			<tspan id="tspan18330" style="letter-spacing:-.12px" font-weight="bold" y="-42.068806" x="140.9753" font-family="&apos;Open Sans&apos;">Fribourg/Freiburg</tspan>
		</text>
		<g stroke-width="1.2" fill="none">
			<path stroke="#000" id="s1014" d="m90.45 25.9 15.756 0.09375"/>
			<path stroke="#000" id="s1013" d="m90.45 21.775 15.559 0.20938"/>
			<path stroke="#000" id="s1012" d="m101.51 15.521 16.38 0.21017"/>
			<path stroke="#000" id="s1006" d="m75.519 15.167 25.915 0.3182c-4.742 0.04828-9.4409 0.03654-15.415 1.8031"/>
			<path stroke="#000" id="s1005" d="m65.85 12.95 23.55-6.05m-23.425 3.725 15.525 0.325"/>
			<path stroke="#000" id="s1037" d="m13.3 36.5c5.8148-8.8113 12.639-17.094 24-23 11.615-6.2241 25.361-8.8354 33.2-8.8l19.192 0.028766"/>
			<path stroke="#000" id="s1003" d="m75.585 15.163c-16.538-0.807-20.872 0.497-25.168 1.808l15.468-4.0305"/>
			<path stroke="#000" id="s1036" d="m14.991 37.406c6.159-7.178 11.141-14.635 24.324-20.153 7.111-4.256 19.524-6.671 26.676-6.646m-26.591 6.593c-11.15 5.4261-16.644 13.411-22.35 21.3-2.3711 4.5223-4.2709 8.9351-5.2125 13.125"/>
			<path stroke="#000" id="s955" d="m362.25 73.85-23.15 6.05"/>
			<path stroke="#000" id="s954" d="m345.05 85.35-15.425 3.6"/>
			<path stroke="#000" id="s953" d="m316 81.3c12.589 0.83138 18.911-0.02818 23.15-1.45l-14.25 3.65"/>
			<path stroke="#000" id="s952" d="m345.35 71.7-29.35 7.7"/>
			<path stroke="#000" id="s950" d="m316.15 81.336c-2.1073-0.14703-8.8861 0.38578-15.382 2.0317l15.274-3.9598"/>
			<path stroke="#000" id="s857" d="m285.28 87.257 15.521-3.8891"/>
			<path stroke="#000" id="s951" d="m309.63 87.5 15.29-4"/>
			<path stroke="#000" id="s856" d="m269.9 104.51 59.839-15.592"/>
			<path stroke="#000" id="s855" d="m270.1 91.3 15.25-4.05"/>
			<path stroke="#000" id="s853" d="m254.85 95.2 15.35-3.9"/>
			<path stroke="#000" id="s850" d="m233.85 107.3 15.373-4.0207"/>
			<path stroke="#000" id="s851" d="m239.85 99.15 14.95-4.05c-8.978 2.5039-15.074 6.4302-21.15 9.95"/>
			<path stroke="#000" id="s831" d="m209.7 107.1 30.169-7.95"/>
			<path stroke="#000" id="s830" d="m209.15 120.1 30.25-7.7"/>
			<path stroke="#000" id="s847" d="m231.1 110.25c10.523 0.30297 14.651 0.42101 23.35-1.85l-15.101 4.0384"/>
			<path stroke="#000" id="s852" d="m254.41 108.41 15.52-3.9048"/>
			<path stroke="#000" id="s846" d="m233.7 105.04c-4.7512 3.284-13.268 5.9054-18.314 6.965m15.698-1.7678c-8.6612-0.27086-11.452 0.81836-16.016 1.8385l18.809-4.7023"/>
			<path stroke="#000" id="s845" d="m170.05 123.65 45.044-11.578"/>
			<path stroke="#000" id="s896" d="m154.65 127.85 15.462-4.2125"/>
			<path stroke="#000" id="s883" d="m154.66 127.85-60.687 15.477c-10.567 2.84-20.971 2.23-31.273-0.53-9.726-3.16-18.932-7.66-26.8-15.6"/>
			<path stroke="#000" id="s1023" d="m26.022 114.27c2.7493 4.4728 5.7081 9.007 9.8956 12.957"/>
			<path stroke="#000" id="s1025" d="m26.038 114.31c-3.65-6.7-6.771-13.6-7.438-21.51-0.702-6.486-1.743-12.455 1.2-24.5"/>
			<path stroke="#000" id="s887" d="m97.5 189.55 31.35 0.3c-5.7411 0.0292-8.0574 0.022-15.6-2.3"/>
			<path stroke="#000" id="s890" d="m144.78 187.91c-6.468 1.9241-8.3548 1.9993-15.962 1.9446l31.554 0.53033"/>
			<path stroke="#000" id="s891" d="m129.26 185.47 30.776 0.74068c-4.6243 0.005-8.2689 0.0319-15.274 1.6971"/>
			<path stroke="#000" id="s886" d="m129.33 185.48-31.43-0.33c6.7538 0.0215 10.504 1.0917 15.368 2.3884"/>
			<path stroke="#000" id="s885" d="m82.024 185.09 15.914 0.0656"/>
			<path stroke="#000" id="s884" d="m82.15 189.42 15.362 0.125"/>
			<path stroke="#000" id="s892" d="m176.14 190.64-15.804-0.24123"/>
			<path stroke="#000" id="s893" d="m176.07 186.32-16.042-0.0972"/>
			<path stroke="#000" id="s894" d="m176.11 190.64 105.98 0.98437"/>
			<path stroke="#000" id="s895" d="m282.18 187.3-106.11-0.97"/>
			<path stroke="#000" id="s861" d="m297.73 187.49-15.578-0.18561"/>
			<path stroke="#000" id="s860" d="m297.8 191.85-15.78-0.25"/>
			<path stroke="#000" id="s865" d="m328.5 187.75-30.809-0.25214c5.076 0.34692 10.205 0.38758 15.416 2.2366"/>
			<path stroke="#000" id="s866" d="m297.8 191.85 30.678 0.1125c-5.0937 0.006-9.4507-0.41882-15.381-2.2281"/>
			<path stroke="#000" id="s872" d="m357.37 182.15c-7.6815 5.539-17.373 8.7564-28.921 9.8288 12.161 0.008 21.747-3.1361 30.052-7.8489 7.1482-4.5537 14.29-9.0654 22.91-23.83"/>
			<path stroke="#000" id="s873" d="m328.31 187.74c14.097 0.38812 20.115-3.8399 28.001-7.0004 9.2266-5.7617 15.898-12.671 20.506-20.506-3.9023 7.6122-9.5988 14.989-19.233 21.85"/>
			<path stroke="#000" id="s874" d="m382.83 144.92c-1.2866 5.097-3.1622 10.189-6.0811 15.274"/>
			<path stroke="#000" id="s875" d="m381.38 160.3c1.7915-3.647 3.452-5.0716 5.5154-13.329l1.5-10.07"/>
			<path stroke="#000" id="s841" d="m215.4 154.85 23.912 0.54697"/>
			<path stroke="#000" id="s842" d="m231.05 159.25c-7.8368 2.5513-11.311 2.0412-15.525 2.05l15.275 0.2"/>
			<path stroke="#000" id="s840" d="m199.6 161.15 15.922 0.15139"/>
			<path stroke="#000" id="s882" d="m199.61 161.14-125.26-1.44c-11.499 0.1-21.092-3.49-29.95-8.5-12.988-6.52-16.943-14.46-22.48-22.15"/>
			<path stroke="#000" id="s1022" d="m16.051 114.27c0.73999 4.6073 2.921 9.6076 5.7276 14.779"/>
			<path stroke="#000" id="s880" d="m9.55 127.8c0.56079 14.671 4.2153 21.258 7.6 28.55 5.047 9.5364 12.731 15.505 20.95 20.75 13.493 8.5764 19.962 6.9662 28.15 7.85l15.756 0.13125"/>
			<path stroke="#000" id="s881" d="m82.171 189.42c-11.671-0.27-24.856 0.22-31.771-2.42-14.224-5.34-19.591-8.56-26.9-16-7.337-7.39-13.025-16.08-16.1-26.8-1.281-5.32-2.0817-10.55-1.9-15.6"/>
			<path stroke="#000" id="s1024" d="m5.3387 98.677 0.035355 15.274c-0.047879-5.7952 0.79219-10.262 2.086-15.486"/>
			<path stroke="#000" id="s1021" d="m9.4929 114.6 0.051285 13.229"/>
			<path stroke="#000" id="s1026" d="m13.93 82.944-0.07071 16.263c-0.0127 5.6981 1.8201 13.045 2.194 15.101"/>
			<path stroke="#000" id="s1027" d="m11.6 82.95-4.1177 15.574m2.0157-15.574-0.0042 31.66"/>
			<path stroke="#000" id="s1035" d="m15.05 37.35c-4.5161 5.7282-6.7308 13.246-8.9 20.8m-0.6639 8.623c0.0849-7.522 1.697-14.825 3.6356-21.023 2.0343-5.685 2.8503-6.5 4.1723-9.334"/>
			<path stroke="#000" id="s1000" d="m16.334 51.053c1.769-6.314 4.859-11.667 8.698-16.475 6.531-7.724 14.103-14.447 25.314-17.678"/>
			<path stroke="#000" id="s1004" d="m90.46 21.776c-9.905-0.389-19.536-0.361-28.129 1.594l23.726-6.1018"/>
			<path stroke="#000" id="s1002" d="m35.05 41.9c10.579-10.446 18.701-12.428 26.95-14.85 6.091-1.853 18.207-1.098 28.4-1.175"/>
			<path stroke="#000" id="s1001" d="m33.446 40.8c6.1785-5.4226 4.1652-7.7335 24.678-16.263m-36.319 27.693c1.708-3.162 3.69-6.313 6.645-9.38 7.362-8.614 14.927-13.353 22.6-16.05 3.946-1.41 7.63-2.401 11.35-3.45"/>
			<path stroke="#000" id="s1032" d="m35.081 41.856c-7.677 7.703-12.939 16.63-15.284 26.466 1.862-8.05 4.64-16.526 13.728-27.597"/>
			<path stroke="#000" id="s897" d="m13.736 66.981c0.21864-5.4685 0.61591-10.895 2.5986-15.945"/>
			<path stroke="#000" id="s1031" d="m11.581 82.956 4.4125-15.978m-2.2562-0.06875 0.1875 16.038"/>
			<path stroke="#000" id="s992" d="m219.34 22.878 16.09 0.197"/>
		</g>
		<g font-family="&apos;Open Sans&apos;" fill="#000000">
			<text id="text18495" style="word-spacing:0px;letter-spacing:0px" xml:space="preserve" transform="scale(1,-1)" line-height="125%" font-size="3.803px" y="-193.38991" x="123.73476">
				<tspan id="tspan18497" font-weight="bold" y="-193.38991" x="123.73476" font-family="&apos;Open Sans&apos;">Broye</tspan>
			</text>
			<text id="text18499" style="word-spacing:0px;letter-spacing:0px" xml:space="preserve" transform="matrix(.96521 -.26148 -.26148 -.96521 0 0)" line-height="125%" font-size="5.591px" y="-153.19765" x="228.81863">
				<tspan id="tspan18501" font-weight="bold" y="-153.19765" x="228.81863" font-family="&apos;Open Sans&apos;">Schwarzsee</tspan>
			</text>
			<text id="text18503" style="word-spacing:0px;letter-spacing:0px" xml:space="preserve" transform="scale(1,-1)" line-height="125%" font-size="3.9256px" y="-196.58708" x="322.79367">
				<tspan id="tspan18505" font-weight="bold" y="-196.58708" x="322.79367" font-family="&apos;Open Sans&apos;">Châtel</tspan>
			</text>
		</g>
		<g stroke-width="1.2" fill="none">
			<path stroke="#000" id="s1020" d="m5.275 114.01 0.225 14.68"/>
			<path stroke="#000" id="s1010" d="m81.45 10.95 36.65 0.41464"/>
			<path stroke="#000" id="s1034" d="m11.85 51.566c-1.796 5.857-2.2244 11.834-2.35 17.784l-0.0125 13.619"/>
			<path stroke="#000" id="s1030" d="m5.45 98.7-0.1-31.95"/>
			<path stroke="#000" id="s1033" d="m21.891 52.069c-2.7682 4.8437-4.3619 9.9732-5.9047 14.946"/>
			<path stroke="#000" id="s854" d="m249.19 103.26 60.46-15.753"/>
		</g>
	</g>
</svg>
